<?xml version="1.0" encoding="utf-8"?>
<!-- Generator: Adobe Illustrator 24.1.2, SVG Export Plug-In . SVG Version: 6.00 Build 0)  -->
<svg class="communicative-svg" version="1.1" xmlns="http://www.w3.org/2000/svg" xmlns:xlink="http://www.w3.org/1999/xlink" x="0px" y="0px"
	 viewBox="0 0 1400 1400" style="enable-background:new 0 0 1400 1400;" xml:space="preserve">
<style type="text/css">
	.st0{fill:none;stroke:#EFEFEF;stroke-miterlimit:10;}
	.st1{fill:#EFEFEF;}
</style>
<g id="Horizontal-Small-Bottom">
	<line class="st0" x1="350" y1="1050" x2="1050" y2="1050"/>
</g>
<g id="Horizontal-Small-Top">
	<line class="st0" x1="350" y1="350" x2="1050" y2="350"/>
</g>
<g id="Vertical-Right_1_">
	<g id="Vertical-Right">
		<line class="st0" x1="1050" y1="0" x2="1050" y2="1050"/>
	</g>
</g>
<g id="Vertical-Center_1_">
	<g id="Vertical-Center">
		<line class="st0" x1="700" y1="0" x2="700" y2="1400"/>
	</g>
</g>
<g id="Vertical-Left_1_">
	<g id="Vertical-Left">
		<line class="st0" x1="350" y1="350" x2="350" y2="1400"/>
	</g>
</g>
<g id="Horizontal-Left_1_">
	<g id="Horizontal-Left">
		<line class="st0" x1="0" y1="700" x2="1400" y2="700"/>
	</g>
</g>
<g id="_x31_4">
	<polygon class="st1" points="1397.7,348.9 1048.9,348.9 1048.9,0 	"/>
</g>
<g id="_x31_3">
	<polygon class="st1" points="2.3,1046.6 351.1,1046.6 351.1,1395.4 	"/>
</g>
<g id="_x31_2">
	<polygon class="st1" points="351.1,1046.6 2.3,1046.6 2.3,697.7 	"/>
</g>
<g id="_x31_1">
	<polygon class="st1" points="1048.9,348.9 1397.7,348.9 1397.7,697.7 	"/>
</g>
<g id="_x31_0">
	<polygon class="st1" points="2.3,697.7 351.1,697.7 351.1,1046.6 	"/>
</g>
<g id="_x39_">
	<polygon class="st1" points="351.1,1046.6 700,1046.6 700,1395.4 	"/>
</g>
<g id="_x38_">
	<polygon class="st1" points="1048.9,348.9 700,348.9 700,0 	"/>
</g>
<g id="_x37_">
	<polygon class="st1" points="1397.7,697.7 1048.9,697.7 1048.9,348.9 	"/>
</g>
<g id="_x36_">
	<polygon class="st1" points="700,1046.6 351.1,1046.6 351.1,697.7 	"/>
</g>
<g id="_x35_">
	<polygon class="st1" points="700,348.9 1048.9,348.9 1048.9,697.7 	"/>
</g>
<g id="_x34_">
	<polygon class="st1" points="700,697.7 351.1,697.7 351.1,348.9 	"/>
</g>
<g id="_x33_">
	<polygon class="st1" points="700,697.7 1048.9,697.7 1048.9,1046.6 	"/>
</g>
<g id="_x32_">
	<polygon class="st1" points="1048.9,697.7 700,697.7 700,348.9 	"/>
</g>
<g id="_x31_">
	<polygon class="st1" points="351.1,697.7 700,697.7 700,1046.6 	"/>
</g>
</svg>
